<?xml version="1.0" encoding="UTF-8"?>
<svg xmlns="http://www.w3.org/2000/svg" viewBox="0 0 1540 760" role="img" aria-label="Multi-Agent Orchestration (Target) — AgentCore hosts the runtime, Strands decides tool calls, deterministic code keeps business control (architecture diagram)">
  <style>
    svg {
      font-family: ui-monospace, 'JetBrains Mono', SFMono-Regular, Menlo, Consolas, 'DejaVu Sans Mono', monospace;
      --bg: #020617;
      --grid: #1e293b;
      --text: #ffffff;
      --text-muted: #94a3b8;
      --text-dim: #475569;
      --text-faint: #7d8da1;
      --panel: rgba(15, 23, 42, 0.5);
      --panel-border: #1e293b;
      --lane-fill: rgba(15, 23, 42, 0.22);
      --lane-stroke: #334155;
      --arrow: #64748b;
      --arrow-emphasis: #34d399;
      --mask: #0f172a;
      --frontend-fill:    rgba(8, 51, 68, 0.4);
      --frontend-stroke:  #22d3ee;
      --backend-fill:     rgba(6, 78, 59, 0.4);
      --backend-stroke:   #34d399;
      --database-fill:    rgba(76, 29, 149, 0.4);
      --database-stroke:  #a78bfa;
      --cloud-fill:       rgba(120, 53, 15, 0.3);
      --cloud-stroke:     #fbbf24;
      --security-fill:    rgba(136, 19, 55, 0.4);
      --security-stroke:  #fb7185;
      --messagebus-fill:  rgba(251, 146, 60, 0.3);
      --messagebus-stroke:#fb923c;
      --external-fill:    rgba(30, 41, 59, 0.5);
      --external-stroke:  #94a3b8;
      --toolbar-bg:       rgba(15, 23, 42, 0.8);
      --toolbar-border:   #334155;
      --toolbar-text:     #e2e8f0;
      --toolbar-hover:    rgba(15, 23, 42, 0.95);
      --toolbar-menu-bg:  #0f172a;
    }
    @media (prefers-color-scheme: light) {
      svg {
      --bg: #f8fafc;
      --grid: #e2e8f0;
      --text: #0f172a;
      --text-muted: #64748b;
      --text-dim: #94a3b8;
      --text-faint: #64748b;
      --panel: #ffffff;
      --panel-border: #e2e8f0;
      --lane-fill: rgba(248, 250, 252, 0.65);
      --lane-stroke: #cbd5e1;
      --arrow: #94a3b8;
      --arrow-emphasis: #059669;
      --mask: #ffffff;
      --frontend-fill:    rgba(34, 211, 238, 0.15);
      --frontend-stroke:  #0891b2;
      --backend-fill:     rgba(52, 211, 153, 0.18);
      --backend-stroke:   #059669;
      --database-fill:    rgba(167, 139, 250, 0.2);
      --database-stroke:  #7c3aed;
      --cloud-fill:       rgba(251, 191, 36, 0.18);
      --cloud-stroke:     #d97706;
      --security-fill:    rgba(251, 113, 133, 0.15);
      --security-stroke:  #e11d48;
      --messagebus-fill:  rgba(251, 146, 60, 0.15);
      --messagebus-stroke:#ea580c;
      --external-fill:    rgba(148, 163, 184, 0.18);
      --external-stroke:  #64748b;
      --toolbar-bg:       rgba(255, 255, 255, 0.92);
      --toolbar-border:   #cbd5e1;
      --toolbar-text:     #334155;
      --toolbar-hover:    #ffffff;
      --toolbar-menu-bg:  #ffffff;
      }
    }
    .c-grid       { stroke: var(--grid); fill: none; }
    .c-mask       { fill: var(--mask); stroke: none; }
    .c-frontend   { fill: var(--frontend-fill);   stroke: var(--frontend-stroke); }
    .c-backend    { fill: var(--backend-fill);    stroke: var(--backend-stroke); }
    .c-database   { fill: var(--database-fill);   stroke: var(--database-stroke); }
    .c-cloud      { fill: var(--cloud-fill);      stroke: var(--cloud-stroke); }
    .c-security   { fill: var(--security-fill);   stroke: var(--security-stroke); }
    .c-messagebus { fill: var(--messagebus-fill); stroke: var(--messagebus-stroke); }
    .c-external   { fill: var(--external-fill);   stroke: var(--external-stroke); }
    .t-primary { fill: var(--text); }
    .t-muted   { fill: var(--text-muted); }
    .t-dim     { fill: var(--text-dim); }
    .t-frontend   { fill: var(--frontend-stroke); }
    .t-backend    { fill: var(--backend-stroke); }
    .t-database   { fill: var(--database-stroke); }
    .t-cloud      { fill: var(--cloud-stroke); }
    .t-security   { fill: var(--security-stroke); }
    .t-messagebus { fill: var(--messagebus-stroke); }
    .t-external   { fill: var(--external-stroke); }
    .a-default   { stroke: var(--arrow); fill: none; }
    .a-emphasis  { stroke: var(--arrow-emphasis); fill: none; }
    .a-security  { stroke: var(--security-stroke); fill: none; stroke-dasharray: 5,5; }
    .a-dashed    { stroke: var(--database-stroke); fill: none; stroke-dasharray: 4,4; }
    .m-default   { fill: var(--arrow); }
    .m-emphasis  { fill: var(--arrow-emphasis); }
    .m-security  { fill: var(--security-stroke); }
    .m-dashed    { fill: var(--database-stroke); }
    .c-security-group { fill: transparent; stroke: var(--security-stroke); stroke-dasharray: 4,4; }
    .c-region         { fill: rgba(251, 191, 36, 0.05); stroke: var(--cloud-stroke); stroke-dasharray: 8,4; }
    .c-lane           { fill: var(--lane-fill); stroke: var(--lane-stroke); stroke-dasharray: 6,6; }
  </style>

        <!-- Definitions -->
        <defs>
          <marker id="arrowhead" markerWidth="10" markerHeight="7" refX="9" refY="3.5" orient="auto">
            <polygon points="0 0, 10 3.5, 0 7" class="m-default" />
          </marker>
          <marker id="arrowhead-emphasis" markerWidth="10" markerHeight="7" refX="9" refY="3.5" orient="auto">
            <polygon points="0 0, 10 3.5, 0 7" class="m-emphasis" />
          </marker>
          <marker id="arrowhead-security" markerWidth="10" markerHeight="7" refX="9" refY="3.5" orient="auto">
            <polygon points="0 0, 10 3.5, 0 7" class="m-security" />
          </marker>
          <marker id="arrowhead-dashed" markerWidth="10" markerHeight="7" refX="9" refY="3.5" orient="auto">
            <polygon points="0 0, 10 3.5, 0 7" class="m-dashed" />
          </marker>
          <pattern id="grid" width="40" height="40" patternUnits="userSpaceOnUse">
            <path d="M 40 0 L 0 0 0 40" class="c-grid" stroke-width="0.5"/>
          </pattern>
        </defs>

        <!-- Background Grid -->
        <rect width="100%" height="100%" fill="url(#grid)" />

        <!-- Boundaries (behind everything) -->
        <rect x="270" y="80" width="290" height="610" rx="12" class="c-region" stroke-width="1"/>
        <text x="278" y="98" class="t-cloud" font-size="9" font-weight="600">AgentCore</text>

        <rect x="600" y="270" width="620" height="122" rx="12" class="c-region" stroke-width="1"/>
        <text x="608" y="288" class="t-cloud" font-size="9" font-weight="600">Strands</text>

        <rect x="600" y="80" width="590" height="118" rx="12" class="c-region" stroke-width="1"/>
        <text x="608" y="98" class="t-cloud" font-size="9" font-weight="600">Custom business code</text>

        <!-- Connection paths (before components for correct z-order) -->
        <path d="M 220 330 L 258.75 330 Q 260 330 260 331.25 L 260 331.25 Q 260 332.5 261.25 332.5 L 300 332.5" class="a-emphasis" stroke-width="1.8" marker-end="url(#arrowhead-emphasis)"/>
        <path d="M 490 332.5 L 558.75 332.5 Q 560 332.5 560 333.75 L 560 333.75 Q 560 335 561.25 335 L 630 335" class="a-default" stroke-width="1.5" marker-end="url(#arrowhead)"/>
        <path d="M 735 300 L 735 229.25 Q 735 221.25 727 221.25 L 498 221.25 Q 490 221.25 490 213.25 L 490 142.5" class="a-emphasis" stroke-width="1.8" marker-end="url(#arrowhead-emphasis)"/>
        <path d="M 415 480 L 415 335.5 Q 415 327.5 407 327.5 L 403 327.5 Q 395 327.5 395 319.5 L 395 175" class="a-security" stroke-width="1.5" marker-end="url(#arrowhead-security)"/>
        <path d="M 395 175 L 395 347 Q 395 355 403 355 L 622 355 Q 630 355 630 363 L 630 535" class="a-default" stroke-width="1.5" marker-end="url(#arrowhead)"/>
        <path d="M 755 500 L 755 347 Q 755 339 747 339 L 743 339 Q 735 339 735 331 L 735 178" class="a-default" stroke-width="1.5" marker-end="url(#arrowhead)"/>
        <path d="M 840 144 L 885 144 L 885 144 L 930 144" class="a-default" stroke-width="1.5" marker-end="url(#arrowhead)"/>
        <path d="M 1045 178 L 1045 231 Q 1045 239 1037 239 L 743 239 Q 735 239 735 247 L 735 300" class="a-emphasis" stroke-width="1.8" marker-end="url(#arrowhead-emphasis)"/>
        <path d="M 840 335 L 885 335 L 885 336 L 930 336" class="a-default" stroke-width="1.5" marker-end="url(#arrowhead)"/>
        <path d="M 1190 336 L 1229 336 Q 1230 336 1230 335 L 1230 335 Q 1230 334 1231 334 L 1270 334" class="a-emphasis" stroke-width="1.8" marker-end="url(#arrowhead-emphasis)"/>
        <path d="M 1270 334 L 1231 334 Q 1230 334 1230 335 L 1230 335 Q 1230 336 1229 336 L 1190 336" class="a-dashed" stroke-width="1.5" marker-end="url(#arrowhead-dashed)"/>
        <path d="M 735 370 L 735 482 Q 735 490 727 490 L 403 490 Q 395 490 395 498 L 395 610" class="a-dashed" stroke-width="1.5" marker-end="url(#arrowhead-dashed)"/>

        <!-- Components -->
        <rect x="40" y="300" width="180" height="60" rx="6" class="c-mask"/>
        <rect x="40" y="300" width="180" height="60" rx="6" class="c-external" stroke-width="1.5"/>
        <text x="130" y="328" class="t-primary" font-size="11" font-weight="600" text-anchor="middle">Client / Harness</text>
        <text x="130" y="344" class="t-muted" font-size="9" text-anchor="middle">InvokeAgentRuntime</text>

        <rect x="300" y="300" width="190" height="65" rx="6" class="c-mask"/>
        <rect x="300" y="300" width="190" height="65" rx="6" class="c-cloud" stroke-width="1.5"/>
        <text x="395" y="330.5" class="t-primary" font-size="11" font-weight="600" text-anchor="middle">AgentCore Runtime</text>
        <text x="395" y="346.5" class="t-muted" font-size="9" text-anchor="middle">runtime app + entrypoint</text>

        <rect x="300" y="110" width="190" height="65" rx="6" class="c-mask"/>
        <rect x="300" y="110" width="190" height="65" rx="6" class="c-security" stroke-width="1.5"/>
        <text x="395" y="140.5" class="t-primary" font-size="11" font-weight="600" text-anchor="middle">AgentCore Gateway</text>
        <text x="395" y="156.5" class="t-muted" font-size="9" text-anchor="middle">governed tools surface</text>

        <rect x="300" y="480" width="230" height="70" rx="6" class="c-mask"/>
        <rect x="300" y="480" width="230" height="70" rx="6" class="c-security" stroke-width="1.5"/>
        <text x="415" y="513" class="t-primary" font-size="11" font-weight="600" text-anchor="middle">Policy + Guardrails + Interceptors</text>
        <text x="415" y="529" class="t-muted" font-size="9" text-anchor="middle">authz, filtering, tracing</text>

        <rect x="300" y="610" width="190" height="60" rx="6" class="c-mask"/>
        <rect x="300" y="610" width="190" height="60" rx="6" class="c-database" stroke-width="1.5"/>
        <text x="395" y="638" class="t-primary" font-size="11" font-weight="600" text-anchor="middle">AgentCore Memory</text>
        <text x="395" y="654" class="t-muted" font-size="9" text-anchor="middle">optional episodic recall</text>

        <rect x="630" y="300" width="210" height="70" rx="6" class="c-mask"/>
        <rect x="630" y="300" width="210" height="70" rx="6" class="c-backend" stroke-width="1.5"/>
        <text x="735" y="333" class="t-primary" font-size="11" font-weight="600" text-anchor="middle">UrbanCampaignStrandsAgent</text>
        <text x="735" y="349" class="t-muted" font-size="9" text-anchor="middle">orchestrator for one run</text>

        <rect x="930" y="300" width="260" height="72" rx="6" class="c-mask"/>
        <rect x="930" y="300" width="260" height="72" rx="6" class="c-backend" stroke-width="1.5"/>
        <text x="1060" y="334" class="t-primary" font-size="11" font-weight="600" text-anchor="middle">Specialized Agent Roles</text>
        <text x="1060" y="350" class="t-muted" font-size="9" text-anchor="middle">Events / Advertiser / Allocator / Review</text>
        <text x="1060" y="364" class="t-backend" font-size="7" text-anchor="middle">LLM-driven</text>

        <rect x="1270" y="300" width="210" height="68" rx="6" class="c-mask"/>
        <rect x="1270" y="300" width="210" height="68" rx="6" class="c-cloud" stroke-width="1.5"/>
        <text x="1375" y="332" class="t-primary" font-size="11" font-weight="600" text-anchor="middle">Amazon Bedrock</text>
        <text x="1375" y="348" class="t-muted" font-size="9" text-anchor="middle">small / medium / strong tiers</text>

        <rect x="630" y="110" width="210" height="68" rx="6" class="c-mask"/>
        <rect x="630" y="110" width="210" height="68" rx="6" class="c-backend" stroke-width="1.5"/>
        <text x="735" y="142" class="t-primary" font-size="11" font-weight="600" text-anchor="middle">CityContext Builder</text>
        <text x="735" y="158" class="t-muted" font-size="9" text-anchor="middle">deterministic normalization</text>

        <rect x="930" y="110" width="230" height="68" rx="6" class="c-mask"/>
        <rect x="930" y="110" width="230" height="68" rx="6" class="c-backend" stroke-width="1.5"/>
        <text x="1045" y="142" class="t-primary" font-size="11" font-weight="600" text-anchor="middle">Deterministic Core</text>
        <text x="1045" y="158" class="t-muted" font-size="9" text-anchor="middle">scoring + allocation constraints</text>

        <rect x="630" y="500" width="250" height="70" rx="6" class="c-mask"/>
        <rect x="630" y="500" width="250" height="70" rx="6" class="c-cloud" stroke-width="1.5"/>
        <text x="755" y="533" class="t-primary" font-size="11" font-weight="600" text-anchor="middle">Tool Backends</text>
        <text x="755" y="549" class="t-muted" font-size="9" text-anchor="middle">weather / events / mobility / zones / advertisers</text>

        <!-- Connection labels -->


        <rect x="655.5" y="199.25" width="58" height="14" rx="3" class="c-mask"/>
        <text x="684.5" y="209.25" class="t-backend" font-size="8" text-anchor="middle">tool calls</text>




        <rect x="931" y="219" width="58" height="14" rx="3" class="c-mask"/>
        <text x="960" y="229" class="t-backend" font-size="8" text-anchor="middle">candidates</text>

        <rect x="1203.4" y="299" width="53.199999999999996" height="14" rx="3" class="c-mask"/>
        <text x="1230" y="309" class="t-backend" font-size="8" text-anchor="middle">LLM calls</text>
        <rect x="1208.2" y="333" width="43.6" height="14" rx="3" class="c-mask"/>
        <text x="1230" y="343" class="t-messagebus" font-size="8" text-anchor="middle">outputs</text>


        <!-- Legend -->
        <text x="40" y="731" class="t-primary" font-size="9" font-weight="600">Legend</text>
        <rect x="40" y="736" width="14" height="9" rx="2" class="c-external" stroke-width="1"/>
        <text x="60" y="744" class="t-muted" font-size="8">External</text>
        <rect x="138" y="736" width="14" height="9" rx="2" class="c-cloud" stroke-width="1"/>
        <text x="158" y="744" class="t-muted" font-size="8">Cloud</text>
        <rect x="221" y="736" width="14" height="9" rx="2" class="c-security" stroke-width="1"/>
        <text x="241" y="744" class="t-muted" font-size="8">Security</text>
        <rect x="319" y="736" width="14" height="9" rx="2" class="c-database" stroke-width="1"/>
        <text x="339" y="744" class="t-muted" font-size="8">Database</text>
        <rect x="417" y="736" width="14" height="9" rx="2" class="c-backend" stroke-width="1"/>
        <text x="437" y="744" class="t-muted" font-size="8">Backend</text>
      </svg>
